<?xml version="1.0" standalone="no"?><!DOCTYPE svg PUBLIC "-//W3C//DTD SVG 1.1//EN" "http://www.w3.org/Graphics/SVG/1.1/DTD/svg11.dtd"><svg t="1610021008919" class="icon" viewBox="0 0 1024 1024" version="1.1" xmlns="http://www.w3.org/2000/svg" p-id="1728" xmlns:xlink="http://www.w3.org/1999/xlink" width="200" height="200"><defs><style type="text/css"></style></defs><path d="M512 977.454545C255.348364 977.454545 46.545455 768.651636 46.545455 512c0-91.985455 26.798545-180.933818 77.486545-257.245091 7.098182-10.717091 21.538909-13.626182 32.267636-6.516364 10.705455 7.109818 13.614545 21.562182 6.504727 32.256C117.201455 349.160727 93.090909 429.207273 93.090909 512c0 230.993455 187.915636 418.909091 418.909091 418.909091s418.909091-187.915636 418.909091-418.909091S742.993455 93.090909 512 93.090909c-82.781091 0-162.827636 24.110545-231.493818 69.713455-10.728727 7.109818-25.157818 4.200727-32.256-6.516364-7.109818-10.705455-4.200727-25.146182 6.516364-32.256C331.077818 73.344 420.026182 46.545455 512 46.545455c256.651636 0 465.454545 208.802909 465.454545 465.454545C977.454545 768.651636 768.651636 977.454545 512 977.454545z" p-id="1729" fill="#1afa29"></path><path d="M447.092364 685.579636c-6.167273 0-12.090182-2.455273-16.453818-6.818909L259.851636 507.962182c-9.088-9.088-9.088-23.819636 0-32.907636 9.076364-9.088 23.831273-9.088 32.907636 0l154.344727 154.344727 284.148364-284.16c9.088-9.088 23.819636-9.088 32.907636 0 9.088 9.088 9.088 23.819636 0 32.907636L463.546182 678.760727C459.182545 683.124364 453.271273 685.579636 447.092364 685.579636z" p-id="1730" fill="#1afa29"></path></svg>