<?xml version="1.0" standalone="no"?><!DOCTYPE svg PUBLIC "-//W3C//DTD SVG 1.1//EN" "http://www.w3.org/Graphics/SVG/1.1/DTD/svg11.dtd"><svg t="1610095518248" class="icon" viewBox="0 0 1024 1024" version="1.1" xmlns="http://www.w3.org/2000/svg" p-id="1188" xmlns:xlink="http://www.w3.org/1999/xlink" width="200" height="200"><defs><style type="text/css"></style></defs><path d="M511.997366 117.728395a392.928395 392.928395 0 0 1 233.797531 76.90535l-107.693827 15.27572a39.506173 39.506173 0 0 0 5.530864 78.485597 40.586008 40.586008 0 0 0 5.636214-0.263375l184.36214-26.337448a39.348148 39.348148 0 0 0 33.527572-44.510288l-26.337448-183.835391a39.506173 39.506173 0 0 0-78.222223 11.061728l10.53498 72.954733A472.678189 472.678189 0 0 0 62.575144 661.069959l64-64A393.112757 393.112757 0 0 1 511.997366 117.728395z m449.474897 244.674897l-64 64A394.482305 394.482305 0 0 1 273.985844 825.679012l85.57037-12.115226a39.506173 39.506173 0 1 0-11.167078-78.222222l-184.36214 26.337448a39.506173 39.506173 0 0 0-33.527572 44.510288l26.337448 183.835391A39.506173 39.506173 0 0 0 195.947984 1024a41.08642 41.08642 0 0 0 5.636214-0.526749 39.242798 39.242798 0 0 0 33.527572-44.510288l-13.537449-94.55144a472.546502 472.546502 0 0 0 739.897942-522.008231z" p-id="1189" fill="#1296db"></path></svg>